<mxfile host="app.diagrams.net" modified="2024-02-05T11:17:15.723Z" agent="Mozilla/5.0 (Windows NT 10.0; Win64; x64) AppleWebKit/537.36 (KHTML, like Gecko) Chrome/120.0.0.0 Safari/537.36" etag="9ZUqEfEAHOI9AekbCu5F" version="23.0.2" type="google">
  <diagram name="Seite-1" id="xy_HVixxUG6JfSMXjo8b">
    <mxGraphModel grid="1" page="1" gridSize="10" guides="1" tooltips="1" connect="1" arrows="1" fold="1" pageScale="1" pageWidth="827" pageHeight="1169" math="0" shadow="0">
      <root>
        <mxCell id="0" />
        <mxCell id="1" parent="0" />
        <mxCell id="PZGqk5hzGHYIfOMCjmDK-1" value="Root Anchor" style="rounded=0;whiteSpace=wrap;html=1;" vertex="1" parent="1">
          <mxGeometry x="40" y="80" width="120" height="60" as="geometry" />
        </mxCell>
        <mxCell id="PZGqk5hzGHYIfOMCjmDK-4" value="Annotation" style="rounded=0;whiteSpace=wrap;html=1;" vertex="1" parent="1">
          <mxGeometry x="400" y="80" width="120" height="60" as="geometry" />
        </mxCell>
        <mxCell id="PZGqk5hzGHYIfOMCjmDK-5" value="&lt;b&gt;Move 2.&lt;/b&gt;" style="rounded=0;whiteSpace=wrap;html=1;" vertex="1" parent="1">
          <mxGeometry x="220" y="80" width="120" height="60" as="geometry" />
        </mxCell>
        <mxCell id="PZGqk5hzGHYIfOMCjmDK-6" value="" style="endArrow=classic;startArrow=classic;html=1;rounded=0;" edge="1" parent="1" source="PZGqk5hzGHYIfOMCjmDK-1">
          <mxGeometry width="50" height="50" relative="1" as="geometry">
            <mxPoint x="160" y="160" as="sourcePoint" />
            <mxPoint x="220" y="110" as="targetPoint" />
          </mxGeometry>
        </mxCell>
        <mxCell id="PZGqk5hzGHYIfOMCjmDK-10" value="" style="endArrow=classic;startArrow=classic;html=1;rounded=0;" edge="1" parent="1" source="PZGqk5hzGHYIfOMCjmDK-5">
          <mxGeometry width="50" height="50" relative="1" as="geometry">
            <mxPoint x="510" y="110" as="sourcePoint" />
            <mxPoint x="400" y="110" as="targetPoint" />
          </mxGeometry>
        </mxCell>
        <mxCell id="PZGqk5hzGHYIfOMCjmDK-14" value="Move 3." style="rounded=0;whiteSpace=wrap;html=1;" vertex="1" parent="1">
          <mxGeometry x="980" y="80" width="120" height="60" as="geometry" />
        </mxCell>
        <mxCell id="PZGqk5hzGHYIfOMCjmDK-18" value="" style="endArrow=classic;startArrow=classic;html=1;rounded=0;entryX=0;entryY=0.5;entryDx=0;entryDy=0;exitX=1;exitY=0.5;exitDx=0;exitDy=0;" edge="1" parent="1" source="Xhl2oQds6ium_8sv50U5-20" target="PZGqk5hzGHYIfOMCjmDK-14">
          <mxGeometry width="50" height="50" relative="1" as="geometry">
            <mxPoint x="920" y="110" as="sourcePoint" />
            <mxPoint x="840" y="300" as="targetPoint" />
          </mxGeometry>
        </mxCell>
        <mxCell id="PZGqk5hzGHYIfOMCjmDK-22" value="Root" style="rhombus;whiteSpace=wrap;html=1;" vertex="1" parent="1">
          <mxGeometry x="1140" y="90" width="40" height="40" as="geometry" />
        </mxCell>
        <mxCell id="PZGqk5hzGHYIfOMCjmDK-49" value="Promoting a Variation to Main Line" style="text;html=1;strokeColor=none;fillColor=none;align=center;verticalAlign=middle;whiteSpace=wrap;rounded=0;fontStyle=1;fontSize=16;" vertex="1" parent="1">
          <mxGeometry x="280" y="-80" width="320" height="30" as="geometry" />
        </mxCell>
        <mxCell id="PZGqk5hzGHYIfOMCjmDK-50" value="Identify Ranges:&lt;br&gt;A+D are the main line (with text and possibly more Variations inbetween)&lt;br&gt;B+C are the variation that will be split up&lt;br&gt;&lt;br&gt;A+D swap places with B+C:&lt;br&gt;&lt;br&gt;swap(A,B)&lt;br&gt;swap(C,D)&lt;br&gt;&lt;br&gt;border cases: ranges are empty or contain no move (only text)" style="text;html=1;strokeColor=none;fillColor=none;align=left;verticalAlign=middle;whiteSpace=wrap;rounded=0;" vertex="1" parent="1">
          <mxGeometry x="70" y="220" width="380" height="220" as="geometry" />
        </mxCell>
        <mxCell id="Xhl2oQds6ium_8sv50U5-3" value="" style="shape=flexArrow;endArrow=classic;html=1;rounded=0;strokeWidth=1;width=18;endSize=6.33;" edge="1" parent="1">
          <mxGeometry width="50" height="50" relative="1" as="geometry">
            <mxPoint x="1470" y="100" as="sourcePoint" />
            <mxPoint x="1340" y="100" as="targetPoint" />
          </mxGeometry>
        </mxCell>
        <mxCell id="Xhl2oQds6ium_8sv50U5-4" value="Main Line" style="edgeLabel;html=1;align=center;verticalAlign=middle;resizable=0;points=[];" connectable="0" vertex="1" parent="Xhl2oQds6ium_8sv50U5-3">
          <mxGeometry x="-0.2615" relative="1" as="geometry">
            <mxPoint as="offset" />
          </mxGeometry>
        </mxCell>
        <mxCell id="Xhl2oQds6ium_8sv50U5-5" value="&lt;font style=&quot;font-size: 30px;&quot;&gt;&lt;b&gt;V&lt;/b&gt;&lt;/font&gt;" style="rounded=0;whiteSpace=wrap;html=1;" vertex="1" parent="1">
          <mxGeometry x="630" y="80" width="140" height="60" as="geometry" />
        </mxCell>
        <mxCell id="Xhl2oQds6ium_8sv50U5-6" value="Variation Anchor" style="rounded=0;whiteSpace=wrap;html=1;" vertex="1" parent="1">
          <mxGeometry x="630" y="140" width="140" height="60" as="geometry" />
        </mxCell>
        <mxCell id="Xhl2oQds6ium_8sv50U5-7" value="Move 2." style="rounded=0;whiteSpace=wrap;html=1;" vertex="1" parent="1">
          <mxGeometry x="640" y="230" width="120" height="60" as="geometry" />
        </mxCell>
        <mxCell id="Xhl2oQds6ium_8sv50U5-8" value="Move 3." style="rounded=0;whiteSpace=wrap;html=1;" vertex="1" parent="1">
          <mxGeometry x="640" y="445" width="120" height="60" as="geometry" />
        </mxCell>
        <mxCell id="Xhl2oQds6ium_8sv50U5-9" value="Anchor" style="rhombus;whiteSpace=wrap;html=1;" vertex="1" parent="1">
          <mxGeometry x="680" y="530" width="40" height="40" as="geometry" />
        </mxCell>
        <mxCell id="Xhl2oQds6ium_8sv50U5-11" value="" style="endArrow=classic;startArrow=classic;html=1;rounded=0;exitX=0.5;exitY=0;exitDx=0;exitDy=0;entryX=0.5;entryY=1;entryDx=0;entryDy=0;" edge="1" parent="1" source="Xhl2oQds6ium_8sv50U5-7" target="Xhl2oQds6ium_8sv50U5-6">
          <mxGeometry width="50" height="50" relative="1" as="geometry">
            <mxPoint x="920" y="350" as="sourcePoint" />
            <mxPoint x="970" y="300" as="targetPoint" />
          </mxGeometry>
        </mxCell>
        <mxCell id="Xhl2oQds6ium_8sv50U5-14" value="" style="endArrow=classic;startArrow=classic;html=1;rounded=0;exitX=0.5;exitY=0;exitDx=0;exitDy=0;entryX=0.5;entryY=1;entryDx=0;entryDy=0;" edge="1" parent="1">
          <mxGeometry width="50" height="50" relative="1" as="geometry">
            <mxPoint x="699.5" y="320" as="sourcePoint" />
            <mxPoint x="699.5" y="290" as="targetPoint" />
          </mxGeometry>
        </mxCell>
        <mxCell id="Xhl2oQds6ium_8sv50U5-17" value="" style="endArrow=classic;startArrow=classic;html=1;rounded=0;exitX=0.5;exitY=0;exitDx=0;exitDy=0;entryX=0.5;entryY=1;entryDx=0;entryDy=0;" edge="1" parent="1" target="Xhl2oQds6ium_8sv50U5-8">
          <mxGeometry width="50" height="50" relative="1" as="geometry">
            <mxPoint x="699.5" y="530" as="sourcePoint" />
            <mxPoint x="700" y="515" as="targetPoint" />
          </mxGeometry>
        </mxCell>
        <mxCell id="Xhl2oQds6ium_8sv50U5-18" value="" style="shape=flexArrow;endArrow=classic;html=1;rounded=0;" edge="1" parent="1">
          <mxGeometry width="50" height="50" relative="1" as="geometry">
            <mxPoint x="700" y="675" as="sourcePoint" />
            <mxPoint x="700" y="585" as="targetPoint" />
          </mxGeometry>
        </mxCell>
        <mxCell id="Xhl2oQds6ium_8sv50U5-19" value="Variation" style="edgeLabel;html=1;align=center;verticalAlign=middle;resizable=0;points=[];" connectable="0" vertex="1" parent="Xhl2oQds6ium_8sv50U5-18">
          <mxGeometry x="-0.2" y="-4" relative="1" as="geometry">
            <mxPoint x="-4" as="offset" />
          </mxGeometry>
        </mxCell>
        <mxCell id="Xhl2oQds6ium_8sv50U5-20" value="Variation Node" style="rounded=0;whiteSpace=wrap;html=1;" vertex="1" parent="1">
          <mxGeometry x="800" y="80" width="140" height="60" as="geometry" />
        </mxCell>
        <mxCell id="Xhl2oQds6ium_8sv50U5-21" value="Variation Anchor" style="rounded=0;whiteSpace=wrap;html=1;" vertex="1" parent="1">
          <mxGeometry x="800" y="140" width="140" height="60" as="geometry" />
        </mxCell>
        <mxCell id="Xhl2oQds6ium_8sv50U5-23" value="" style="edgeStyle=orthogonalEdgeStyle;rounded=0;orthogonalLoop=1;jettySize=auto;html=1;" edge="1" parent="1">
          <mxGeometry relative="1" as="geometry">
            <mxPoint x="470" y="430" as="targetPoint" />
          </mxGeometry>
        </mxCell>
        <mxCell id="Xhl2oQds6ium_8sv50U5-24" value="" style="edgeStyle=orthogonalEdgeStyle;rounded=0;orthogonalLoop=1;jettySize=auto;html=1;" edge="1" parent="1">
          <mxGeometry relative="1" as="geometry">
            <mxPoint x="470" y="430" as="targetPoint" />
          </mxGeometry>
        </mxCell>
        <mxCell id="Xhl2oQds6ium_8sv50U5-27" value="" style="endArrow=classic;startArrow=classic;html=1;rounded=0;entryX=0;entryY=0.5;entryDx=0;entryDy=0;" edge="1" parent="1" target="Xhl2oQds6ium_8sv50U5-20">
          <mxGeometry width="50" height="50" relative="1" as="geometry">
            <mxPoint x="770" y="110" as="sourcePoint" />
            <mxPoint x="1140" y="300" as="targetPoint" />
          </mxGeometry>
        </mxCell>
        <mxCell id="zQXJqpaQwCjpdeCAosOg-2" value="" style="endArrow=classic;startArrow=classic;html=1;rounded=0;exitX=1;exitY=0.5;exitDx=0;exitDy=0;" edge="1" parent="1" source="PZGqk5hzGHYIfOMCjmDK-14">
          <mxGeometry width="50" height="50" relative="1" as="geometry">
            <mxPoint x="1090" y="160" as="sourcePoint" />
            <mxPoint x="1140" y="110" as="targetPoint" />
          </mxGeometry>
        </mxCell>
        <mxCell id="zQXJqpaQwCjpdeCAosOg-3" value="" style="endArrow=classic;startArrow=classic;html=1;rounded=0;entryX=0;entryY=0.5;entryDx=0;entryDy=0;" edge="1" parent="1" target="PZGqk5hzGHYIfOMCjmDK-1">
          <mxGeometry width="50" height="50" relative="1" as="geometry">
            <mxPoint x="10" y="110" as="sourcePoint" />
            <mxPoint x="70" y="20" as="targetPoint" />
          </mxGeometry>
        </mxCell>
        <mxCell id="UqJFPrgbs51TcyFQ2qiO-4" value="" style="endArrow=classic;startArrow=classic;html=1;rounded=0;edgeStyle=orthogonalEdgeStyle;entryX=1;entryY=0.5;entryDx=0;entryDy=0;exitX=0;exitY=0.5;exitDx=0;exitDy=0;" edge="1" parent="1" source="Xhl2oQds6ium_8sv50U5-5" target="PZGqk5hzGHYIfOMCjmDK-4">
          <mxGeometry width="100" height="100" relative="1" as="geometry">
            <mxPoint x="60" y="290" as="sourcePoint" />
            <mxPoint x="160" y="190" as="targetPoint" />
          </mxGeometry>
        </mxCell>
        <mxCell id="UqJFPrgbs51TcyFQ2qiO-5" value="Annotation" style="rounded=0;whiteSpace=wrap;html=1;" vertex="1" parent="1">
          <mxGeometry x="640" y="320" width="120" height="60" as="geometry" />
        </mxCell>
        <mxCell id="UqJFPrgbs51TcyFQ2qiO-6" value="" style="endArrow=classic;startArrow=classic;html=1;rounded=0;exitX=0.5;exitY=0;exitDx=0;exitDy=0;entryX=0.5;entryY=1;entryDx=0;entryDy=0;" edge="1" parent="1" source="Xhl2oQds6ium_8sv50U5-8" target="UqJFPrgbs51TcyFQ2qiO-5">
          <mxGeometry width="50" height="50" relative="1" as="geometry">
            <mxPoint x="870" y="420" as="sourcePoint" />
            <mxPoint x="920" y="370" as="targetPoint" />
          </mxGeometry>
        </mxCell>
        <mxCell id="UqJFPrgbs51TcyFQ2qiO-8" value="B" style="shape=curlyBracket;whiteSpace=wrap;html=1;rounded=1;labelPosition=left;verticalLabelPosition=middle;align=right;verticalAlign=middle;size=0.5;fontSize=30;fontStyle=1" vertex="1" parent="1">
          <mxGeometry x="570" y="231" width="20" height="150" as="geometry" />
        </mxCell>
        <mxCell id="UqJFPrgbs51TcyFQ2qiO-12" value="C" style="shape=curlyBracket;whiteSpace=wrap;html=1;rounded=1;labelPosition=left;verticalLabelPosition=middle;align=right;verticalAlign=middle;size=0.5;fontSize=30;fontStyle=1" vertex="1" parent="1">
          <mxGeometry x="580" y="445" width="20" height="65" as="geometry" />
        </mxCell>
        <mxCell id="UqJFPrgbs51TcyFQ2qiO-15" value="&lt;font style=&quot;font-size: 30px;&quot;&gt;&lt;b&gt;A&lt;/b&gt;&lt;/font&gt;" style="verticalLabelPosition=bottom;shadow=0;dashed=0;align=center;html=1;verticalAlign=top;strokeWidth=1;shape=mxgraph.mockup.markup.curlyBrace;whiteSpace=wrap;strokeColor=#999999;" vertex="1" parent="1">
          <mxGeometry x="220" y="30" width="300" height="20" as="geometry" />
        </mxCell>
        <mxCell id="UqJFPrgbs51TcyFQ2qiO-21" value="&lt;font style=&quot;font-size: 30px;&quot;&gt;&lt;b&gt;D&lt;/b&gt;&lt;/font&gt;" style="verticalLabelPosition=bottom;shadow=0;dashed=0;align=center;html=1;verticalAlign=top;strokeWidth=1;shape=mxgraph.mockup.markup.curlyBrace;whiteSpace=wrap;strokeColor=#999999;" vertex="1" parent="1">
          <mxGeometry x="980" y="20" width="160" height="20" as="geometry" />
        </mxCell>
      </root>
    </mxGraphModel>
  </diagram>
</mxfile>
